<svg xmlns="http://www.w3.org/2000/svg" xmlns:xlink="http://www.w3.org/1999/xlink" fill="none" version="1.1" width="14" height="22" viewBox="0 0 14 22"><g style="opacity:0.5;"><path d="M7,0L10,5L8,5L8,12.381L11,10.882L10.999,10L10,10L10,6L14,6L14,10L12.999,10L13,12.118L8,14.618L8.0009,16.171C9.1656,16.5831,10,17.6941,10,19C10,20.6569,8.6569,22,7,22C5.3431,22,4,20.6569,4,19C4,17.813,4.68934,16.7871,5.6895,16.3006L1,13L0.99892,10.7318C0.40172,10.3858,0,9.7398,0,9C0,7.89543,0.89543,7,2,7C3.10457,7,4,7.89543,4,9C4,9.7403,3.59783,10.3866,3.00007,10.7324L3,12L6,14.086L6,5L4,5L7,0Z" fill="#FFFFFF" fill-opacity="1" style="mix-blend-mode:passthrough"/></g></svg>